<svg version="1.1" id="Layer_1" xmlns="http://www.w3.org/2000/svg" xmlns:xlink="http://www.w3.org/1999/xlink" x="0px" y="0px"
	 width="100%" viewBox="0 0 500 500" enable-background="new 0 0 500 500" xml:space="preserve">
<path fill="#000000" opacity="1.000000" stroke="none" 
	d="
M347.000000,501.000000 
	C231.333359,501.000000 116.166725,501.000000 1.000062,501.000000 
	C1.000041,334.333405 1.000041,167.666794 1.000021,1.000151 
	C167.666550,1.000101 334.333099,1.000101 500.999756,1.000050 
	C500.999817,167.666519 500.999817,334.333038 500.999908,500.999786 
	C449.833344,501.000000 398.666656,501.000000 347.000000,501.000000 
M177.795044,325.793182 
	C178.226715,326.148346 178.658401,326.503479 179.332687,327.296326 
	C179.582748,327.513824 179.832809,327.731354 180.098862,328.613007 
	C181.125031,329.631042 182.151199,330.649048 183.445648,332.130676 
	C183.692337,332.386505 183.939026,332.642365 184.123871,333.598450 
	C190.760071,339.717926 197.396286,345.837372 204.000793,352.000305 
	C204.000793,352.000305 204.043457,351.967163 204.140350,352.640961 
	C207.468124,355.090057 210.795914,357.539154 214.481857,360.538635 
	C215.991302,361.379059 217.500732,362.219452 219.065445,363.330383 
	C219.065445,363.330383 219.339996,363.359711 219.395737,363.573273 
	C219.395737,363.573273 219.612747,363.613556 219.927200,364.110718 
	C220.624512,364.392365 221.321823,364.673981 222.326813,365.395569 
	C222.633835,365.571106 222.940857,365.746643 223.295410,366.332397 
	C223.295410,366.332397 223.611404,366.597656 223.611404,366.597656 
	C223.611404,366.597656 224.014252,366.508698 224.503464,366.788025 
	C224.679428,366.853577 224.855392,366.919128 225.236786,367.594666 
	C226.172882,368.034424 227.108978,368.474213 228.030624,368.988037 
	C228.030624,368.988037 228.092621,368.945038 228.348770,369.567780 
	C233.633255,372.626923 238.686707,376.251495 244.286270,378.539520 
	C247.814102,379.980988 252.511612,380.577606 256.057831,379.496948 
	C261.790649,377.750000 267.255646,374.708069 272.392944,371.505829 
	C284.713745,363.825928 296.512573,355.497040 307.071686,345.326447 
	C318.616913,334.205933 329.188751,322.348267 337.116669,308.487457 
	C343.450867,297.413025 349.261047,285.912628 353.969147,274.070618 
	C358.485535,262.710815 362.068573,250.834991 364.612091,238.877563 
	C367.033905,227.492294 368.069183,215.740173 368.825409,204.091660 
	C369.674652,191.010071 369.515961,177.863525 369.818878,164.745789 
	C369.988953,157.382401 365.513031,154.264603 359.187500,152.123123 
	C343.826874,146.922882 328.599731,141.329147 313.306824,135.927948 
	C296.042358,129.830444 279.205627,122.733818 260.386322,121.696045 
	C242.592850,120.714844 225.523651,122.267815 208.300858,129.071838 
	C207.210846,129.449142 206.120850,129.826447 204.463638,130.269287 
	C203.990265,130.541107 203.516876,130.812927 202.268860,131.054276 
	C199.526978,132.115738 196.785080,133.177200 193.420044,134.357208 
	C192.656357,134.720856 191.892670,135.084488 190.449158,135.397934 
	C188.348740,136.631989 186.248322,137.866043 184.079041,139.060135 
	C184.079041,139.060135 184.081726,139.139694 183.473129,139.110703 
	C182.875839,139.603302 182.278534,140.095901 181.696259,140.671616 
	C181.696259,140.671616 181.620834,140.633621 180.949387,140.788681 
	C176.981659,144.867325 173.013931,148.945969 168.994675,153.009796 
	C168.994675,153.009796 169.031815,153.048782 168.395874,153.319778 
	C163.941818,159.531036 161.901306,166.566711 161.178360,174.815140 
	C161.119247,175.543472 161.060135,176.271790 160.309723,177.502518 
	C160.372223,183.381821 160.434738,189.261139 160.395706,195.712738 
	C160.433533,196.096649 160.471359,196.480560 160.217560,197.743362 
	C160.505325,201.156830 160.793091,204.570312 161.142548,208.624741 
	C161.188614,209.050644 161.234695,209.476562 161.074448,210.803329 
	C161.752884,215.529388 162.431320,220.255432 163.169250,225.621826 
	C163.211517,226.047577 163.253784,226.473328 163.092255,227.753799 
	C165.608078,245.279831 169.297455,262.430817 179.257080,278.214722 
	C181.797409,275.860809 184.661331,273.256073 184.550751,270.784393 
	C184.059448,259.801270 182.715958,248.856323 181.776779,237.257767 
	C181.787201,236.826569 181.797623,236.395355 182.524963,235.576538 
	C183.317276,230.552734 183.895233,225.483765 184.942856,220.513779 
	C187.866135,206.645676 192.730072,193.557861 202.998627,183.357559 
	C210.978149,175.431076 221.180527,171.318832 231.807495,167.952606 
	C248.578232,162.640259 264.635681,165.587616 280.579590,171.197845 
	C292.677612,175.454788 304.744843,179.799271 317.305511,184.671875 
	C322.237366,186.400406 327.169250,188.128922 332.060242,189.928818 
	C332.060242,189.928818 332.139099,189.905487 332.058563,190.705994 
	C332.248871,192.007645 332.669403,193.322571 332.595123,194.608948 
	C331.398621,215.332214 328.833374,235.881378 322.794800,255.789322 
	C314.523560,283.057800 300.689728,306.965546 278.156738,325.028290 
	C269.751831,331.765747 260.670837,337.659729 251.194595,344.012482 
	C249.816101,344.686462 248.437607,345.360413 247.006805,345.999878 
	C247.006805,345.999878 247.030212,346.058044 246.258133,346.092133 
	C240.166107,347.546478 234.074097,349.000824 227.253281,350.332428 
	C226.514450,350.335358 225.775635,350.338287 224.303406,350.035065 
	C218.499054,347.765045 212.694702,345.495056 206.598511,342.758362 
	C206.289673,342.568573 205.980850,342.378784 205.585342,341.526825 
	C203.226166,339.558472 200.866974,337.590118 198.478180,335.554871 
	C198.478180,335.554871 198.414932,335.518127 198.197632,335.027802 
	C197.764526,334.756287 197.331421,334.484772 196.643555,333.660309 
	C196.033752,333.136536 195.423950,332.612793 194.656952,331.443787 
	C192.727814,329.375793 190.798691,327.307770 188.892288,325.126312 
	C188.892288,325.126312 188.777344,325.113129 188.675064,324.444122 
	C186.916687,322.514954 185.158310,320.585815 183.314102,318.683716 
	C183.314102,318.683716 183.350189,318.601257 183.164429,317.984436 
	C182.500854,317.261169 181.837265,316.537872 181.033310,315.980194 
	C181.033310,315.980194 181.193741,315.833893 181.110703,315.300690 
	C180.811325,315.125488 180.511948,314.950287 180.065216,314.894714 
	C180.065216,314.894714 180.237595,314.815247 180.159653,314.129333 
	C179.042587,312.758545 177.925507,311.387787 176.697464,309.474213 
	C176.296982,308.855804 175.896515,308.237427 175.243942,307.136475 
	C175.074326,307.071899 174.904709,307.007355 174.572647,306.333496 
	C173.903412,305.257812 173.234161,304.182159 172.637604,302.648956 
	C172.469666,302.301270 172.208725,302.204620 171.457153,301.800995 
	C170.516693,300.248718 169.576218,298.696411 168.674561,296.616119 
	C168.399155,296.417664 168.123764,296.219208 167.626022,295.363312 
	C166.613693,293.294464 165.601349,291.225586 164.662613,288.619385 
	C164.378540,288.421814 164.094467,288.224243 163.675980,287.484863 
	C163.397736,287.019714 163.119476,286.554535 162.856155,285.333649 
	C160.987076,280.236511 159.430283,274.997711 157.193130,270.067566 
	C148.909164,251.811691 145.187500,232.368011 143.199005,212.703934 
	C141.718201,198.060287 142.324203,183.211411 141.806610,168.460739 
	C141.667740,164.503098 143.033920,162.559158 146.897507,161.284164 
	C151.755768,159.680954 156.300858,157.128799 161.000610,155.000000 
	C161.000610,155.000000 160.986099,154.980789 161.603683,154.834152 
	C162.365067,154.195175 163.126465,153.556213 163.971802,152.961975 
	C163.971802,152.961975 163.914261,152.886215 164.531143,152.659653 
	C164.014297,151.450760 163.497452,150.241882 162.646469,148.507416 
	C161.456375,147.900131 160.266266,147.292847 158.692017,146.447449 
	C158.343872,146.501740 158.146301,146.703506 157.343460,147.223755 
	C150.990784,149.549408 144.669983,151.967651 138.274429,154.168655 
	C133.898438,155.674622 132.199478,158.642273 132.314987,163.120346 
	C132.661606,176.557343 132.871933,189.997803 133.182831,203.435791 
	C133.583786,220.766205 137.016876,237.630951 141.533051,254.264191 
	C146.625900,273.021454 153.990128,290.841248 164.985352,307.620789 
	C165.339630,308.057709 165.693909,308.494629 166.239182,309.392639 
	C166.239182,309.392639 166.503632,309.815887 166.534851,310.455048 
	C167.398483,311.575043 168.262100,312.695068 169.114853,313.893341 
	C169.114853,313.893341 169.193726,313.898071 169.231339,314.400879 
	C169.509293,314.561249 169.787262,314.721588 170.265518,315.487579 
	C170.920303,316.285248 171.575089,317.082916 172.211929,318.513702 
	C172.810349,319.005493 173.408783,319.497284 174.206772,320.575714 
	C174.848831,321.358154 175.490875,322.140594 176.107285,323.564117 
	C176.665710,324.108704 177.224121,324.653290 178.001694,325.007050 
	C178.001694,325.007050 177.779343,325.192749 177.795044,325.793182 
M215.502594,228.043655 
	C214.185867,231.422272 212.295517,234.694382 211.645264,238.196747 
	C207.359253,261.282104 225.078537,283.817047 248.677567,286.590179 
	C263.639160,288.348358 282.485626,275.004883 287.860291,261.396484 
	C297.878571,236.030609 280.908112,208.438568 253.341736,206.606339 
	C236.829681,205.508850 224.599060,213.680374 215.502594,228.043655 
z"/>
<path fill="#F5F206" opacity="1.000000" stroke="none" 
	d="
M161.280777,209.902466 
	C161.234695,209.476562 161.188614,209.050644 161.340637,207.981766 
	C161.195557,203.847351 160.852356,200.355911 160.509171,196.864471 
	C160.471359,196.480560 160.433533,196.096649 160.739838,195.205566 
	C161.056335,188.798965 161.028671,182.899551 161.001007,177.000122 
	C161.060135,176.271790 161.119247,175.543472 161.557663,174.315643 
	C164.301910,166.893707 166.666870,159.971252 169.031830,153.048782 
	C169.031815,153.048782 168.994675,153.009796 169.355728,152.962936 
	C173.684799,148.821930 177.652817,144.727783 181.620834,140.633621 
	C181.620834,140.633621 181.696259,140.671616 182.004013,140.734741 
	C182.901749,140.245148 183.491730,139.692413 184.081726,139.139679 
	C184.081726,139.139694 184.079041,139.060135 184.480042,139.122192 
	C186.963684,137.938873 189.046341,136.693497 191.128983,135.448120 
	C191.892670,135.084488 192.656357,134.720856 194.007980,134.496979 
	C197.411774,133.452744 200.227631,132.268753 203.043488,131.084747 
	C203.516876,130.812927 203.990265,130.541107 204.990265,130.422867 
	C206.667343,130.357101 207.817780,130.137741 209.375656,129.921844 
	C211.402603,129.612961 213.111984,129.534653 214.627945,128.952621 
	C232.850525,121.956314 251.821350,120.588318 270.509094,124.827217 
	C287.853729,128.761459 304.682678,135.061844 321.614685,140.693207 
	C334.999146,145.144730 348.197968,150.154968 361.473999,154.931656 
	C365.383362,156.338257 367.894165,158.723007 367.727417,163.299225 
	C367.110748,180.226318 367.845856,197.319946 365.680817,214.041275 
	C363.389008,231.741791 359.777222,249.551315 354.214966,266.483063 
	C345.802826,292.090179 332.396515,315.282501 312.984192,334.488922 
	C307.214325,340.197571 301.085693,345.543579 294.769287,350.950317 
	C293.878052,350.082611 293.338928,349.320404 293.007233,348.316895 
	C305.076019,334.780762 319.765411,324.000244 328.541412,307.954468 
	C333.784912,298.367462 340.266174,289.348999 344.558441,279.372589 
	C353.791382,257.912720 359.765533,235.383881 361.496094,212.020126 
	C362.621002,196.832977 362.608643,181.555771 362.827759,166.314911 
	C362.854401,164.462891 361.573151,161.427689 360.174377,160.914886 
	C352.919800,158.255341 345.430237,156.236740 338.010925,154.001556 
	C337.999329,154.008286 337.994781,153.981857 337.744751,153.738724 
	C334.542236,152.559830 331.589783,151.624069 328.566467,150.685333 
	C328.495605,150.682373 328.418823,150.563110 328.365845,150.224182 
	C312.761230,144.246643 297.232483,138.543106 281.633514,133.038605 
	C279.261475,132.201569 276.563690,132.287689 273.683716,131.903061 
	C272.912170,131.777252 272.473450,131.695190 271.868347,131.362137 
	C270.478271,131.033493 269.254547,130.955841 267.697693,130.846527 
	C266.928406,130.729065 266.492310,130.643295 265.897888,130.250397 
	C254.825958,126.135803 243.924911,128.567444 232.597504,130.004883 
	C231.174500,130.034409 230.100601,129.838089 229.188614,130.136566 
	C217.046799,134.110306 204.754395,137.708557 192.865387,142.339661 
	C185.272812,145.297195 178.616776,150.201553 174.125854,157.421555 
	C166.476761,169.718964 166.646729,183.343079 167.420029,197.053619 
	C167.457565,197.719147 168.352020,198.336349 168.853699,199.315781 
	C168.891266,200.106857 168.922531,200.558212 168.697418,201.330139 
	C168.019348,214.449509 168.359512,227.125854 173.434387,239.041168 
	C174.076080,239.006561 174.717758,238.971954 175.359451,238.937363 
	C175.597061,232.961960 175.834671,226.986572 176.102798,220.643005 
	C176.186462,219.539352 176.239594,218.803879 176.612854,217.949905 
	C178.464218,213.829605 179.684402,209.672272 181.591415,205.858337 
	C185.575150,197.891083 189.296906,189.683212 194.258560,182.339127 
	C202.631577,169.945587 215.765823,164.683594 229.654694,160.933258 
	C232.572845,160.145309 235.273438,158.551666 238.390610,157.248154 
	C239.140717,157.129501 239.574509,157.091965 240.349457,157.282059 
	C242.839081,157.626266 245.007309,157.989273 247.132675,157.818558 
	C259.015564,156.863937 270.253113,159.918015 281.284210,163.595978 
	C297.172882,168.893555 313.013428,174.385300 328.618073,180.453629 
	C333.124420,182.206070 339.544037,182.412643 340.979370,189.232941 
	C341.145630,189.310760 341.487122,189.176071 341.533569,189.626984 
	C341.441803,194.328766 341.303528,198.579636 340.829224,202.879410 
	C340.121216,204.683243 339.749268,206.438171 339.334717,208.539764 
	C339.239319,209.582718 339.186523,210.278976 339.041779,211.277023 
	C338.951263,212.720352 338.952698,213.861893 338.927612,215.379272 
	C338.832031,216.757141 338.763031,217.759171 338.412231,218.937256 
	C337.938568,220.134705 337.746704,221.156113 337.473145,222.610306 
	C335.880524,240.406876 331.646271,257.104584 324.929871,273.163147 
	C317.763519,290.297455 307.716156,305.591949 294.916199,318.876831 
	C294.115021,317.265961 293.482635,315.975677 293.045593,314.419342 
	C294.442841,312.592926 295.597351,310.993195 296.854370,309.478516 
	C305.749878,298.759674 313.153687,287.147980 318.823883,274.375122 
	C330.110443,248.950851 333.866638,222.158752 333.764801,194.638245 
	C333.758942,193.058685 332.705170,191.482986 332.139099,189.905487 
	C332.139099,189.905487 332.060242,189.928818 332.025696,189.548523 
	C327.598450,187.471268 323.205688,185.774307 318.559998,183.853790 
	C307.856689,179.810226 297.424622,175.939102 286.949463,172.188446 
	C280.097900,169.735275 273.345337,166.563156 266.264618,165.283737 
	C250.998474,162.525299 235.614471,163.128510 221.242126,169.460464 
	C213.928406,172.682602 206.362610,176.721970 200.818283,182.290970 
	C187.986649,195.179672 183.341263,212.121094 181.118393,229.732544 
	C180.863922,231.748627 181.555237,233.884064 181.808029,235.964157 
	C181.797623,236.395355 181.787201,236.826569 181.390274,237.749298 
	C180.724579,239.836670 180.126541,241.451279 180.219238,243.025192 
	C180.725937,251.628342 181.551132,260.215332 181.908020,268.822754 
	C181.989624,270.790710 180.657654,272.817291 179.976257,274.816925 
	C178.567322,273.394989 176.432831,272.212585 175.871124,270.510986 
	C172.960968,261.694824 170.394455,252.762772 167.825394,243.837387 
	C166.209061,238.221954 164.798782,232.547211 163.296066,226.899078 
	C163.253784,226.473328 163.211517,226.047577 163.375092,224.999603 
	C162.814224,219.552399 162.047501,214.727432 161.280777,209.902466 
z"/>
<path fill="#F0ED07" opacity="1.000000" stroke="none" 
	d="
M292.799805,348.558167 
	C293.338928,349.320404 293.878052,350.082611 294.588135,351.235352 
	C289.632599,355.527252 284.762543,359.839661 279.320312,363.234772 
	C270.914337,368.478729 262.189667,373.233826 253.412613,377.838745 
	C251.982529,378.589081 249.433456,377.888245 247.665039,377.190460 
	C241.081406,374.592743 234.607635,371.716644 228.092621,368.945038 
	C228.092621,368.945038 228.030624,368.988037 227.959290,368.627197 
	C226.935760,367.839111 225.983551,367.411896 225.031342,366.984680 
	C224.855392,366.919128 224.679428,366.853577 224.205231,366.474030 
	C223.733795,365.951813 223.514099,365.872528 223.247864,365.922150 
	C222.940857,365.746643 222.633835,365.571106 222.072327,364.865906 
	C221.082809,364.095337 220.347778,363.854462 219.612747,363.613586 
	C219.612747,363.613556 219.395737,363.573273 219.455963,363.355469 
	C219.516190,363.137695 219.320618,362.853729 219.320618,362.853729 
	C219.320618,362.853729 219.010178,363.059875 219.010178,363.059875 
	C217.500732,362.219452 215.991302,361.379059 214.454269,360.313599 
	C214.426682,360.088531 214.604172,359.822876 214.630096,359.681213 
	C214.550171,359.243042 214.342133,359.052399 213.774124,358.758728 
	C210.358704,356.355591 207.201080,354.161377 204.043457,351.967163 
	C204.043457,351.967163 204.000793,352.000305 203.980286,351.639130 
	C199.387009,346.764221 194.866241,342.195892 190.215897,337.763550 
	C188.352692,335.987671 186.204300,334.511047 184.185715,332.898193 
	C183.939026,332.642365 183.692337,332.386505 183.327301,331.562927 
	C182.166931,329.979706 181.124908,328.964294 180.082870,327.948853 
	C179.832809,327.731354 179.582748,327.513824 179.210632,326.775330 
	C178.652161,325.900482 178.215759,325.546631 177.779343,325.192749 
	C177.779343,325.192749 178.001694,325.007050 177.947174,324.778809 
	C177.306061,324.008026 176.719498,323.465515 176.132935,322.923004 
	C175.490875,322.140594 174.848831,321.358154 174.093231,319.974548 
	C173.396423,318.875763 172.813141,318.378174 172.229874,317.880585 
	C171.575089,317.082916 170.920303,316.285248 170.135880,314.938751 
	C169.833435,314.063995 169.562592,313.900055 169.193726,313.898071 
	C169.193726,313.898071 169.114853,313.893341 169.141357,313.527374 
	C168.279770,312.046234 167.391708,310.931061 166.503632,309.815887 
	C166.503632,309.815887 166.239182,309.392639 166.152527,308.867401 
	C165.706375,307.897583 165.346878,307.453003 164.987366,307.008423 
	C153.990128,290.841248 146.625900,273.021454 141.533051,254.264191 
	C137.016876,237.630951 133.583786,220.766205 133.182831,203.435791 
	C132.871933,189.997803 132.661606,176.557343 132.314987,163.120346 
	C132.199478,158.642273 133.898438,155.674622 138.274429,154.168655 
	C144.669983,151.967651 150.990784,149.549408 157.917282,147.198395 
	C158.817307,147.167969 159.012329,147.005478 159.076172,146.685562 
	C160.266266,147.292847 161.456375,147.900131 162.834534,149.101318 
	C163.319809,150.758881 163.617035,151.822540 163.914261,152.886215 
	C163.914261,152.886215 163.971802,152.961975 163.587341,152.919922 
	C162.463943,153.578842 161.725021,154.279816 160.986099,154.980789 
	C160.986099,154.980789 161.000610,155.000000 160.589233,154.958313 
	C154.227036,156.967300 148.211395,158.855667 142.372726,161.187149 
	C140.979065,161.743652 139.378860,163.702072 139.239731,165.147247 
	C138.651321,171.258835 138.025925,177.457062 138.434479,183.555252 
	C139.234009,195.488831 140.596191,207.390198 141.940659,219.280563 
	C144.449814,241.471024 150.822906,262.589172 160.100296,282.853119 
	C160.666916,284.090729 161.911880,285.017822 162.841217,286.089386 
	C163.119476,286.554535 163.397736,287.019714 163.595032,287.893127 
	C163.872406,288.586487 164.230713,288.871613 164.589020,289.156738 
	C165.601349,291.225586 166.613693,293.294464 167.604889,295.833618 
	C167.934418,296.584015 168.285080,296.864075 168.635742,297.144135 
	C169.576218,298.696411 170.516693,300.248718 171.653214,302.291626 
	C172.000809,303.082458 172.239349,303.190552 172.564911,303.106476 
	C173.234161,304.182159 173.903412,305.257812 174.447876,306.663879 
	C174.714096,307.202484 175.105072,307.410736 175.496033,307.619019 
	C175.896515,308.237427 176.296982,308.855804 176.516571,309.759155 
	C177.636307,311.634491 178.936951,313.224854 180.237595,314.815247 
	C180.237595,314.815247 180.065216,314.894714 180.160583,315.115295 
	C180.568542,315.501892 180.881134,315.667908 181.193726,315.833923 
	C181.193741,315.833893 181.033310,315.980194 181.041321,316.271606 
	C181.816284,317.242432 182.583237,317.921844 183.350189,318.601257 
	C183.350189,318.601257 183.314102,318.683716 183.282822,319.018555 
	C185.093475,321.273285 186.935410,323.193207 188.777344,325.113129 
	C188.777344,325.113129 188.892288,325.126312 188.855392,325.547546 
	C190.817047,328.008850 192.815598,330.048950 194.814148,332.089020 
	C195.423950,332.612793 196.033752,333.136536 196.804626,334.233582 
	C197.448776,335.043945 197.931854,335.281036 198.414932,335.518127 
	C198.414932,335.518127 198.478180,335.554871 198.377777,335.934021 
	C199.800079,339.457489 201.284119,342.650482 205.672012,342.188995 
	C205.980850,342.378784 206.289673,342.568573 206.781616,343.328430 
	C211.983902,348.864685 217.103912,353.548065 225.036804,350.341217 
	C225.775635,350.338287 226.514450,350.335358 227.826462,350.684814 
	C232.913162,352.601227 243.330414,349.817139 247.030212,346.058044 
	C247.030212,346.058044 247.006805,345.999878 247.429871,346.044250 
	C249.607101,345.421936 251.361282,344.755280 253.452316,343.977600 
	C260.370544,340.057251 267.034760,336.381653 273.496735,332.379456 
	C276.512695,330.511505 279.137146,328.011414 281.957092,326.188416 
	C282.362946,327.747986 282.750793,328.916992 282.959808,330.375305 
	C266.454834,343.748810 249.499496,355.555634 227.091736,358.784912 
	C228.744415,359.845093 230.397095,360.905273 232.378311,362.086670 
	C234.782394,363.235992 236.857956,364.264069 239.035950,365.500946 
	C239.367859,365.960266 239.650467,366.059692 240.226440,366.080017 
	C240.620728,366.217010 240.774780,366.282013 241.020355,366.553497 
	C241.337982,367.002197 241.613846,367.092865 242.178711,367.100891 
	C242.417938,367.169830 242.877731,367.360870 242.903900,367.718933 
	C244.582397,368.746002 246.234711,369.415070 247.919586,370.058838 
	C247.952164,370.033569 247.943054,370.115509 248.090088,370.433044 
	C249.780594,371.368134 251.794952,372.940094 252.791260,372.448547 
	C259.321198,369.226868 265.631195,365.559326 272.233582,361.927673 
	C272.730164,361.634094 272.972107,361.412933 273.496338,361.007446 
	C276.199188,359.474579 278.585693,358.088745 281.159851,356.643799 
	C281.582520,356.438690 281.736084,356.232117 282.057190,355.731140 
	C285.804047,353.184296 289.301910,350.871216 292.799805,348.558167 
z"/>
<path fill="#C4C109" opacity="1.000000" stroke="none" 
	d="
M228.220703,369.256409 
	C234.607635,371.716644 241.081406,374.592743 247.665039,377.190460 
	C249.433456,377.888245 251.982529,378.589081 253.412613,377.838745 
	C262.189667,373.233826 270.914337,368.478729 279.320312,363.234772 
	C284.762543,359.839661 289.632599,355.527252 294.940247,351.340820 
	C301.085693,345.543579 307.214325,340.197571 312.984192,334.488922 
	C332.396515,315.282501 345.802826,292.090179 354.214966,266.483063 
	C359.777222,249.551315 363.389008,231.741791 365.680817,214.041275 
	C367.845856,197.319946 367.110748,180.226318 367.727417,163.299225 
	C367.894165,158.723007 365.383362,156.338257 361.473999,154.931656 
	C348.197968,150.154968 334.999146,145.144730 321.614685,140.693207 
	C304.682678,135.061844 287.853729,128.761459 270.509094,124.827217 
	C251.821350,120.588318 232.850525,121.956314 214.627945,128.952621 
	C213.111984,129.534653 211.402603,129.612961 209.392548,129.708252 
	C209.001984,129.491211 209.019043,129.062241 209.019043,129.062241 
	C225.523651,122.267815 242.592850,120.714844 260.386322,121.696045 
	C279.205627,122.733818 296.042358,129.830444 313.306824,135.927948 
	C328.599731,141.329147 343.826874,146.922882 359.187500,152.123123 
	C365.513031,154.264603 369.988953,157.382401 369.818878,164.745789 
	C369.515961,177.863525 369.674652,191.010071 368.825409,204.091660 
	C368.069183,215.740173 367.033905,227.492294 364.612091,238.877563 
	C362.068573,250.834991 358.485535,262.710815 353.969147,274.070618 
	C349.261047,285.912628 343.450867,297.413025 337.116669,308.487457 
	C329.188751,322.348267 318.616913,334.205933 307.071686,345.326447 
	C296.512573,355.497040 284.713745,363.825928 272.392944,371.505829 
	C267.255646,374.708069 261.790649,377.750000 256.057831,379.496948 
	C252.511612,380.577606 247.814102,379.980988 244.286270,378.539520 
	C238.686707,376.251495 233.633255,372.626923 228.220703,369.256409 
z"/>
<path fill="#C6C40A" opacity="1.000000" stroke="none" 
	d="
M215.691223,227.726395 
	C224.599060,213.680374 236.829681,205.508850 253.341736,206.606339 
	C280.908112,208.438568 297.878571,236.030609 287.860291,261.396484 
	C282.485626,275.004883 263.639160,288.348358 248.677567,286.590179 
	C225.078537,283.817047 207.359253,261.282104 211.645264,238.196747 
	C212.295517,234.694382 214.185867,231.422272 215.691223,227.726395 
M275.393402,273.928986 
	C283.678253,266.712158 287.097992,256.840271 287.743378,246.604233 
	C288.232422,238.847351 285.222412,231.442032 280.873505,224.239975 
	C272.800690,210.870987 251.617615,204.015762 236.685654,211.330719 
	C226.205582,216.464722 220.238708,224.972046 216.328049,235.862717 
	C210.848312,251.123108 216.383270,264.109955 226.142136,273.650482 
	C230.602798,278.011353 236.300430,279.535248 242.242233,280.850555 
	C254.144424,283.485199 264.887390,281.249084 275.393402,273.928986 
z"/>
<path fill="#9F9E06" opacity="1.000000" stroke="none" 
	d="
M281.939056,325.797852 
	C279.137146,328.011414 276.512695,330.511505 273.496735,332.379456 
	C267.034760,336.381653 260.370544,340.057251 253.147812,343.939331 
	C252.303696,343.987518 252.100922,343.962952 251.898132,343.938354 
	C260.670837,337.659729 269.751831,331.765747 278.156738,325.028290 
	C300.689728,306.965546 314.523560,283.057800 322.794800,255.789322 
	C328.833374,235.881378 331.398621,215.332214 332.595123,194.608948 
	C332.669403,193.322571 332.248871,192.007645 332.098816,190.305740 
	C332.705170,191.482986 333.758942,193.058685 333.764801,194.638245 
	C333.866638,222.158752 330.110443,248.950851 318.823883,274.375122 
	C313.153687,287.147980 305.749878,298.759674 296.854370,309.478516 
	C295.597351,310.993195 294.442841,312.592926 292.762634,314.611633 
	C288.835938,318.645935 285.387512,322.221893 281.939056,325.797852 
z"/>
<path fill="#B2B00A" opacity="1.000000" stroke="none" 
	d="
M182.166504,235.770355 
	C181.555237,233.884064 180.863922,231.748627 181.118393,229.732544 
	C183.341263,212.121094 187.986649,195.179672 200.818283,182.290970 
	C206.362610,176.721970 213.928406,172.682602 221.242126,169.460464 
	C235.614471,163.128510 250.998474,162.525299 266.264618,165.283737 
	C273.345337,166.563156 280.097900,169.735275 286.949463,172.188446 
	C297.424622,175.939102 307.856689,179.810226 318.229736,183.856171 
	C317.710236,184.089691 317.268005,184.097244 316.825775,184.104797 
	C304.744843,179.799271 292.677612,175.454788 280.579590,171.197845 
	C264.635681,165.587616 248.578232,162.640259 231.807495,167.952606 
	C221.180527,171.318832 210.978149,175.431076 202.998627,183.357559 
	C192.730072,193.557861 187.866135,206.645676 184.942856,220.513779 
	C183.895233,225.483765 183.317276,230.552734 182.166504,235.770355 
z"/>
<path fill="#A2A106" opacity="1.000000" stroke="none" 
	d="
M162.848694,285.711517 
	C161.911880,285.017822 160.666916,284.090729 160.100296,282.853119 
	C150.822906,262.589172 144.449814,241.471024 141.940659,219.280563 
	C140.596191,207.390198 139.234009,195.488831 138.434479,183.555252 
	C138.025925,177.457062 138.651321,171.258835 139.239731,165.147247 
	C139.378860,163.702072 140.979065,161.743652 142.372726,161.187149 
	C148.211395,158.855667 154.227036,156.967300 160.579468,154.951385 
	C156.300858,157.128799 151.755768,159.680954 146.897507,161.284164 
	C143.033920,162.559158 141.667740,164.503098 141.806610,168.460739 
	C142.324203,183.211411 141.718201,198.060287 143.199005,212.703934 
	C145.187500,232.368011 148.909164,251.811691 157.193130,270.067566 
	C159.430283,274.997711 160.987076,280.236511 162.848694,285.711517 
z"/>
<path fill="#B2B00A" opacity="1.000000" stroke="none" 
	d="
M163.194153,227.326447 
	C164.798782,232.547211 166.209061,238.221954 167.825394,243.837387 
	C170.394455,252.762772 172.960968,261.694824 175.871124,270.510986 
	C176.432831,272.212585 178.567322,273.394989 179.976257,274.816925 
	C180.657654,272.817291 181.989624,270.790710 181.908020,268.822754 
	C181.551132,260.215332 180.725937,251.628342 180.219238,243.025192 
	C180.126541,241.451279 180.724579,239.836670 181.342178,238.069214 
	C182.715958,248.856323 184.059448,259.801270 184.550751,270.784393 
	C184.661331,273.256073 181.797409,275.860809 179.257080,278.214722 
	C169.297455,262.430817 165.608078,245.279831 163.194153,227.326447 
z"/>
<path fill="#A2A109" opacity="1.000000" stroke="none" 
	d="
M184.154785,333.248322 
	C186.204300,334.511047 188.352692,335.987671 190.215897,337.763550 
	C194.866241,342.195892 199.387009,346.764221 203.996140,351.617401 
	C197.396286,345.837372 190.760071,339.717926 184.154785,333.248322 
z"/>
<path fill="#B8B70C" opacity="1.000000" stroke="none" 
	d="
M224.670105,350.188141 
	C217.103912,353.548065 211.983902,348.864685 206.927521,343.561768 
	C212.694702,345.495056 218.499054,347.765045 224.670105,350.188141 
z"/>
<path fill="#B2B00A" opacity="1.000000" stroke="none" 
	d="
M168.713852,153.184280 
	C166.666870,159.971252 164.301910,166.893707 161.618408,173.955048 
	C161.901306,166.566711 163.941818,159.531036 168.713852,153.184280 
z"/>
<path fill="#B2B00A" opacity="1.000000" stroke="none" 
	d="
M160.655365,177.251312 
	C161.028671,182.899551 161.056335,188.798965 160.790619,194.919418 
	C160.434738,189.261139 160.372223,183.381821 160.655365,177.251312 
z"/>
<path fill="#B8B70C" opacity="1.000000" stroke="none" 
	d="
M246.644165,346.075073 
	C243.330414,349.817139 232.913162,352.601227 228.190857,350.746185 
	C234.074097,349.000824 240.166107,347.546478 246.644165,346.075073 
z"/>
<path fill="#B2B00A" opacity="1.000000" stroke="none" 
	d="
M181.285110,140.711151 
	C177.652817,144.727783 173.684799,148.821930 169.381500,152.970337 
	C173.013931,148.945969 176.981659,144.867325 181.285110,140.711151 
z"/>
<path fill="#B2B00A" opacity="1.000000" stroke="none" 
	d="
M161.177612,210.352905 
	C162.047501,214.727432 162.814224,219.552399 163.345352,224.679428 
	C162.431320,220.255432 161.752884,215.529388 161.177612,210.352905 
z"/>
<path fill="#9F9E06" opacity="1.000000" stroke="none" 
	d="
M317.065643,184.388336 
	C317.268005,184.097244 317.710236,184.089691 318.482727,184.079742 
	C323.205688,185.774307 327.598450,187.471268 332.046143,189.512848 
	C327.169250,188.128922 322.237366,186.400406 317.065643,184.388336 
z"/>
<path fill="#A2A109" opacity="1.000000" stroke="none" 
	d="
M204.091904,352.304077 
	C207.201080,354.161377 210.358704,356.355591 213.884232,358.994629 
	C214.369492,359.567261 214.486832,359.695068 214.604172,359.822876 
	C214.604172,359.822876 214.426682,360.088531 214.275177,360.038391 
	C210.795914,357.539154 207.468124,355.090057 204.091904,352.304077 
z"/>
<path fill="#B2B00A" opacity="1.000000" stroke="none" 
	d="
M160.363373,197.303925 
	C160.852356,200.355911 161.195557,203.847351 161.309814,207.661285 
	C160.793091,204.570312 160.505325,201.156830 160.363373,197.303925 
z"/>
<path fill="#B8B70C" opacity="1.000000" stroke="none" 
	d="
M205.628677,341.857910 
	C201.284119,342.650482 199.800079,339.457489 198.392578,335.967468 
	C200.866974,337.590118 203.226166,339.558472 205.628677,341.857910 
z"/>
<path fill="#B2B00A" opacity="1.000000" stroke="none" 
	d="
M202.656174,131.069519 
	C200.227631,132.268753 197.411774,133.452744 194.319550,134.437698 
	C196.785080,133.177200 199.526978,132.115738 202.656174,131.069519 
z"/>
<path fill="#B8B70C" opacity="1.000000" stroke="none" 
	d="
M194.735550,331.766418 
	C192.815598,330.048950 190.817047,328.008850 188.844025,325.604248 
	C190.798691,327.307770 192.727814,329.375793 194.735550,331.766418 
z"/>
<path fill="#B8B70C" opacity="1.000000" stroke="none" 
	d="
M188.726196,324.778625 
	C186.935410,323.193207 185.093475,321.273285 183.325745,319.005005 
	C185.158310,320.585815 186.916687,322.514954 188.726196,324.778625 
z"/>
<path fill="#B2B00A" opacity="1.000000" stroke="none" 
	d="
M190.789062,135.423035 
	C189.046341,136.693497 186.963684,137.938873 184.514465,139.142166 
	C186.248322,137.866043 188.348740,136.631989 190.789062,135.423035 
z"/>
<path fill="#B8B70C" opacity="1.000000" stroke="none" 
	d="
M180.198624,314.472290 
	C178.936951,313.224854 177.636307,311.634491 176.572052,310.030548 
	C177.925507,311.387787 179.042587,312.758545 180.198624,314.472290 
z"/>
<path fill="#B8B70C" opacity="1.000000" stroke="none" 
	d="
M251.546356,343.975403 
	C252.100922,343.962952 252.303696,343.987518 252.810959,344.050354 
	C251.361282,344.755280 249.607101,345.421936 247.456024,346.061462 
	C248.437607,345.360413 249.816101,344.686462 251.546356,343.975403 
z"/>
<path fill="#A2A109" opacity="1.000000" stroke="none" 
	d="
M180.090866,328.280945 
	C181.124908,328.964294 182.166931,329.979706 183.193176,331.331116 
	C182.151199,330.649048 181.125031,329.631042 180.090866,328.280945 
z"/>
<path fill="#B2B00A" opacity="1.000000" stroke="none" 
	d="
M208.659943,129.067047 
	C209.019043,129.062241 209.001984,129.491211 208.985107,129.704803 
	C207.817780,130.137741 206.667343,130.357101 205.273865,130.390106 
	C206.120850,129.826447 207.210846,129.449142 208.659943,129.067047 
z"/>
<path fill="#A2A109" opacity="1.000000" stroke="none" 
	d="
M166.519241,310.135468 
	C167.391708,310.931061 168.279770,312.046234 169.146790,313.488220 
	C168.262100,312.695068 167.398483,311.575043 166.519241,310.135468 
z"/>
<path fill="#B8B70C" opacity="1.000000" stroke="none" 
	d="
M183.257309,318.292847 
	C182.583237,317.921844 181.816284,317.242432 181.111511,316.188812 
	C181.837265,316.537872 182.500854,317.261169 183.257309,318.292847 
z"/>
<path fill="#C4C109" opacity="1.000000" stroke="none" 
	d="
M225.134064,367.289673 
	C225.983551,367.411896 226.935760,367.839111 227.966522,368.590149 
	C227.108978,368.474213 226.172882,368.034424 225.134064,367.289673 
z"/>
<path fill="#A2A106" opacity="1.000000" stroke="none" 
	d="
M164.222702,152.772934 
	C163.617035,151.822540 163.319809,150.758881 163.001587,149.364105 
	C163.497452,150.241882 164.014297,151.450760 164.222702,152.772934 
z"/>
<path fill="#A2A106" opacity="1.000000" stroke="none" 
	d="
M161.294891,154.907471 
	C161.725021,154.279816 162.463943,153.578842 163.545364,152.897552 
	C163.126465,153.556213 162.365067,154.195175 161.294891,154.907471 
z"/>
<path fill="#C4C109" opacity="1.000000" stroke="none" 
	d="
M219.769974,363.862152 
	C220.347778,363.854462 221.082809,364.095337 221.918488,364.645935 
	C221.321823,364.673981 220.624512,364.392365 219.769974,363.862152 
z"/>
<path fill="#B2B00A" opacity="1.000000" stroke="none" 
	d="
M183.777420,139.125183 
	C183.491730,139.692413 182.901749,140.245148 181.996506,140.693176 
	C182.278534,140.095901 182.875839,139.603302 183.777420,139.125183 
z"/>
<path fill="#A2A109" opacity="1.000000" stroke="none" 
	d="
M176.120117,323.243561 
	C176.719498,323.465515 177.306061,324.008026 177.837585,324.874207 
	C177.224121,324.653290 176.665710,324.108704 176.120117,323.243561 
z"/>
<path fill="#A2A109" opacity="1.000000" stroke="none" 
	d="
M172.220901,318.197144 
	C172.813141,318.378174 173.396423,318.875763 173.993439,319.681213 
	C173.408783,319.497284 172.810349,319.005493 172.220901,318.197144 
z"/>
<path fill="#A2A109" opacity="1.000000" stroke="none" 
	d="
M177.787201,325.492981 
	C178.215759,325.546631 178.652161,325.900482 179.089325,326.556519 
	C178.658401,326.503479 178.226715,326.148346 177.787201,325.492981 
z"/>
<path fill="#B8B70C" opacity="1.000000" stroke="none" 
	d="
M175.369995,307.377747 
	C175.105072,307.410736 174.714096,307.202484 174.529114,306.968536 
	C174.904709,307.007355 175.074326,307.071899 175.369995,307.377747 
z"/>
<path fill="#A2A109" opacity="1.000000" stroke="none" 
	d="
M164.986359,307.314606 
	C165.346878,307.453003 165.706375,307.897583 166.057037,308.636841 
	C165.693909,308.494629 165.339630,308.057709 164.986359,307.314606 
z"/>
<path fill="#A2A106" opacity="1.000000" stroke="none" 
	d="
M168.655151,296.880127 
	C168.285080,296.864075 167.934418,296.584015 167.716064,296.162354 
	C168.123764,296.219208 168.399155,296.417664 168.655151,296.880127 
z"/>
<path fill="#B8B70C" opacity="1.000000" stroke="none" 
	d="
M198.306274,335.272949 
	C197.931854,335.281036 197.448776,335.043945 196.932007,334.510071 
	C197.331421,334.484772 197.764526,334.756287 198.306274,335.272949 
z"/>
<path fill="#A2A106" opacity="1.000000" stroke="none" 
	d="
M164.625824,288.888062 
	C164.230713,288.871613 163.872406,288.586487 163.662247,288.164001 
	C164.094467,288.224243 164.378540,288.421814 164.625824,288.888062 
z"/>
<path fill="#B8B70C" opacity="1.000000" stroke="none" 
	d="
M181.152222,315.567322 
	C180.881134,315.667908 180.568542,315.501892 180.234253,315.055481 
	C180.511948,314.950287 180.811325,315.125488 181.152222,315.567322 
z"/>
<path fill="#A2A106" opacity="1.000000" stroke="none" 
	d="
M158.884094,146.566498 
	C159.012329,147.005478 158.817307,147.167969 158.295212,147.112885 
	C158.146301,146.703506 158.343872,146.501740 158.884094,146.566498 
z"/>
<path fill="#A2A109" opacity="1.000000" stroke="none" 
	d="
M169.212524,314.149475 
	C169.562592,313.900055 169.833435,314.063995 170.035736,314.635925 
	C169.787262,314.721588 169.509293,314.561249 169.212524,314.149475 
z"/>
<path fill="#C4C109" opacity="1.000000" stroke="none" 
	d="
M219.037811,363.195129 
	C219.010178,363.059875 219.320618,362.853729 219.320618,362.853729 
	C219.320618,362.853729 219.516190,363.137695 219.428101,363.248718 
	C219.339996,363.359711 219.065445,363.330383 219.037811,363.195129 
z"/>
<path fill="#A2A106" opacity="1.000000" stroke="none" 
	d="
M172.601257,302.877716 
	C172.239349,303.190552 172.000809,303.082458 171.852051,302.570618 
	C172.208725,302.204620 172.469666,302.301270 172.601257,302.877716 
z"/>
<path fill="#C4C109" opacity="1.000000" stroke="none" 
	d="
M223.271637,366.127258 
	C223.514099,365.872528 223.733795,365.951813 223.960617,366.334351 
	C224.014252,366.508698 223.611404,366.597656 223.611404,366.597656 
	C223.611404,366.597656 223.295410,366.332397 223.271637,366.127258 
z"/>
<path fill="#020200" opacity="1.000000" stroke="none" 
	d="
M238.933517,365.292145 
	C236.857956,364.264069 234.782394,363.235992 232.387695,361.703125 
	C233.411636,360.458405 234.681000,359.298279 236.109924,359.047607 
	C244.605194,357.557281 252.333969,354.351196 259.993774,350.346191 
	C280.825562,339.453949 297.222260,323.865601 310.688507,304.852020 
	C331.261627,275.803864 339.821625,242.963882 341.609955,207.501038 
	C341.500732,205.656525 341.333008,204.243515 341.165283,202.830505 
	C341.303528,198.579636 341.441803,194.328766 341.689819,189.276184 
	C341.610535,187.509079 341.421509,186.543701 341.122620,185.259338 
	C335.909973,182.460587 330.975769,179.517670 325.673096,177.586823 
	C308.921906,171.487274 292.098633,165.567474 275.173920,159.969147 
	C263.764099,156.195007 252.020325,154.508896 240.008286,157.054428 
	C239.574509,157.091965 239.140717,157.129501 237.989258,157.155029 
	C230.683762,159.151932 224.075302,161.095901 217.511826,163.181381 
	C193.059692,170.950775 179.143692,195.519150 176.292725,218.068390 
	C176.239594,218.803879 176.186462,219.539352 175.773376,220.856995 
	C174.810501,224.757492 174.207596,228.075836 173.604675,231.394180 
	C172.137558,226.599609 171.414871,221.697113 170.793900,216.781754 
	C170.130508,211.530685 169.563095,206.267487 168.953796,201.009583 
	C168.922531,200.558212 168.891266,200.106857 169.196106,199.063629 
	C169.621552,191.326141 169.179260,184.124405 169.925964,177.048126 
	C171.020889,166.671951 174.678314,157.443573 183.307587,150.506531 
	C191.370041,144.025131 200.924133,141.125717 210.386246,138.130219 
	C220.472504,134.937149 230.871628,132.732300 241.595398,130.082077 
	C250.056503,130.231262 258.056335,130.394394 266.056183,130.557526 
	C266.492310,130.643295 266.928406,130.729065 267.905243,131.141876 
	C269.642212,131.516998 270.838470,131.565079 272.034729,131.613129 
	C272.473450,131.695190 272.912170,131.777252 273.869141,132.219666 
	C291.308075,138.384781 308.228729,144.189560 325.234375,150.141281 
	C325.626526,150.246750 325.933685,150.205261 326.503906,150.266541 
	C327.317566,150.433914 327.868195,150.498505 328.418823,150.563110 
	C328.418823,150.563110 328.495605,150.682373 328.771973,150.951721 
	C332.030518,152.141342 335.012634,153.061600 337.994781,153.981857 
	C337.994781,153.981857 337.999329,154.008286 338.198639,154.295822 
	C344.098419,156.743729 349.781555,158.951645 355.507141,161.043198 
	C358.137054,162.003922 359.437805,163.470505 359.423004,166.519745 
	C359.400269,171.204102 360.389709,175.913254 360.161072,180.573196 
	C359.308777,197.946121 358.597015,215.266693 355.623352,232.548935 
	C351.441681,256.851624 342.924103,279.386200 330.309784,300.208160 
	C314.904999,325.636200 293.678253,345.733582 268.338165,361.212677 
	C262.082520,365.033966 256.271484,370.708435 247.943054,370.115509 
	C247.943054,370.115509 247.952164,370.033569 247.793121,369.753052 
	C246.048645,368.768616 244.463196,368.064728 242.877731,367.360870 
	C242.877731,367.360870 242.417938,367.169830 242.108856,366.864502 
	C241.573792,366.224426 241.283478,366.153687 240.928833,366.346985 
	C240.774780,366.282013 240.620728,366.217010 240.151886,365.834351 
	C239.535919,365.441833 239.234711,365.366974 238.933517,365.292145 
z"/>
<path fill="#AEAC06" opacity="1.000000" stroke="none" 
	d="
M248.090088,370.433044 
	C256.271484,370.708435 262.082520,365.033966 268.338165,361.212677 
	C293.678253,345.733582 314.904999,325.636200 330.309784,300.208160 
	C342.924103,279.386200 351.441681,256.851624 355.623352,232.548935 
	C358.597015,215.266693 359.308777,197.946121 360.161072,180.573196 
	C360.389709,175.913254 359.400269,171.204102 359.423004,166.519745 
	C359.437805,163.470505 358.137054,162.003922 355.507141,161.043198 
	C349.781555,158.951645 344.098419,156.743729 338.210266,154.289093 
	C345.430237,156.236740 352.919800,158.255341 360.174377,160.914886 
	C361.573151,161.427689 362.854401,164.462891 362.827759,166.314911 
	C362.608643,181.555771 362.621002,196.832977 361.496094,212.020126 
	C359.765533,235.383881 353.791382,257.912720 344.558441,279.372589 
	C340.266174,289.348999 333.784912,298.367462 328.541412,307.954468 
	C319.765411,324.000244 305.076019,334.780762 293.007233,348.316895 
	C289.301910,350.871216 285.804047,353.184296 281.898041,355.829559 
	C281.287567,356.313660 281.114990,356.494049 280.972168,356.702911 
	C278.585693,358.088745 276.199188,359.474579 273.255890,361.087738 
	C272.470367,361.555847 272.241699,361.796600 272.013000,362.037384 
	C265.631195,365.559326 259.321198,369.226868 252.791260,372.448547 
	C251.794952,372.940094 249.780594,371.368134 248.090088,370.433044 
z"/>
<path fill="#A6A305" opacity="1.000000" stroke="none" 
	d="
M341.551422,207.932526 
	C339.821625,242.963882 331.261627,275.803864 310.688507,304.852020 
	C297.222260,323.865601 280.825562,339.453949 259.993774,350.346191 
	C252.333969,354.351196 244.605194,357.557281 236.109924,359.047607 
	C234.681000,359.298279 233.411636,360.458405 232.059174,361.581879 
	C230.397095,360.905273 228.744415,359.845093 227.091736,358.784912 
	C249.499496,355.555634 266.454834,343.748810 283.248749,330.215149 
	C287.506012,326.242981 291.295502,322.720184 295.084961,319.197388 
	C307.716156,305.591949 317.763519,290.297455 324.929871,273.163147 
	C331.646271,257.104584 335.880524,240.406876 337.728058,222.430603 
	C338.274445,220.799133 338.484222,219.780182 338.694031,218.761215 
	C338.763031,217.759171 338.832031,216.757141 339.154236,215.147430 
	C339.316162,213.351608 339.224945,212.163422 339.133728,210.975250 
	C339.186523,210.278976 339.239319,209.582718 339.599182,208.487793 
	C340.454651,208.036942 341.003052,207.984741 341.551422,207.932526 
z"/>
<path fill="#C7C308" opacity="1.000000" stroke="none" 
	d="
M241.134155,130.096008 
	C230.871628,132.732300 220.472504,134.937149 210.386246,138.130219 
	C200.924133,141.125717 191.370041,144.025131 183.307587,150.506531 
	C174.678314,157.443573 171.020889,166.671951 169.925964,177.048126 
	C169.179260,184.124405 169.621552,191.326141 169.189819,198.723938 
	C168.352020,198.336349 167.457565,197.719147 167.420029,197.053619 
	C166.646729,183.343079 166.476761,169.718964 174.125854,157.421555 
	C178.616776,150.201553 185.272812,145.297195 192.865387,142.339661 
	C204.754395,137.708557 217.046799,134.110306 229.188614,130.136566 
	C230.100601,129.838089 231.174500,130.034409 233.046478,130.003510 
	C236.324585,130.036224 238.729370,130.066116 241.134155,130.096008 
z"/>
<path fill="#C7C308" opacity="1.000000" stroke="none" 
	d="
M176.612839,217.949905 
	C179.143692,195.519150 193.059692,170.950775 217.511826,163.181381 
	C224.075302,161.095901 230.683762,159.151932 237.672928,157.236145 
	C235.273438,158.551666 232.572845,160.145309 229.654694,160.933258 
	C215.765823,164.683594 202.631577,169.945587 194.258560,182.339127 
	C189.296906,189.683212 185.575150,197.891083 181.591415,205.858337 
	C179.684402,209.672272 178.464218,213.829605 176.612839,217.949905 
z"/>
<path fill="#C7C308" opacity="1.000000" stroke="none" 
	d="
M240.349457,157.282059 
	C252.020325,154.508896 263.764099,156.195007 275.173920,159.969147 
	C292.098633,165.567474 308.921906,171.487274 325.673096,177.586823 
	C330.975769,179.517670 335.909973,182.460587 341.061096,185.705231 
	C341.010620,187.365128 340.911896,188.260132 340.813141,189.155136 
	C339.544037,182.412643 333.124420,182.206070 328.618073,180.453629 
	C313.013428,174.385300 297.172882,168.893555 281.284210,163.595978 
	C270.253113,159.918015 259.015564,156.863937 247.132675,157.818558 
	C245.007309,157.989273 242.839081,157.626266 240.349457,157.282059 
z"/>
<path fill="#C7C308" opacity="1.000000" stroke="none" 
	d="
M168.697403,201.330139 
	C169.563095,206.267487 170.130508,211.530685 170.793900,216.781754 
	C171.414871,221.697113 172.137558,226.599609 173.604675,231.394180 
	C174.207596,228.075836 174.810501,224.757492 175.742844,221.225159 
	C175.834671,226.986572 175.597061,232.961960 175.359451,238.937363 
	C174.717758,238.971954 174.076080,239.006561 173.434387,239.041168 
	C168.359512,227.125854 168.019348,214.449509 168.697403,201.330139 
z"/>
<path fill="#C9C813" opacity="1.000000" stroke="none" 
	d="
M325.149384,149.994324 
	C308.228729,144.189560 291.308075,138.384781 274.201996,132.263412 
	C276.563690,132.287689 279.261475,132.201569 281.633514,133.038605 
	C297.232483,138.543106 312.761230,144.246643 328.365845,150.224182 
	C327.868195,150.498505 327.317566,150.433914 326.236572,150.188919 
	C325.520599,150.003784 325.334991,149.999054 325.149384,149.994324 
z"/>
<path fill="#F0EC06" opacity="1.000000" stroke="none" 
	d="
M294.916199,318.876831 
	C291.295502,322.720184 287.506012,326.242981 283.427582,329.925903 
	C282.750793,328.916992 282.362946,327.747986 281.957092,326.188416 
	C285.387512,322.221893 288.835938,318.645935 292.567322,314.877686 
	C293.482635,315.975677 294.115021,317.265961 294.916199,318.876831 
z"/>
<path fill="#C9C813" opacity="1.000000" stroke="none" 
	d="
M241.595398,130.082062 
	C238.729370,130.066116 236.324585,130.036224 233.470840,130.007690 
	C243.924911,128.567444 254.825958,126.135803 265.897888,130.250381 
	C258.056335,130.394394 250.056503,130.231262 241.595398,130.082062 
z"/>
<path fill="#C7C308" opacity="1.000000" stroke="none" 
	d="
M341.609955,207.501038 
	C341.003052,207.984741 340.454651,208.036942 339.641815,208.141113 
	C339.749268,206.438171 340.121216,204.683243 340.829224,202.879410 
	C341.333008,204.243515 341.500732,205.656525 341.609955,207.501038 
z"/>
<path fill="#AEAC06" opacity="1.000000" stroke="none" 
	d="
M337.744751,153.738724 
	C335.012634,153.061600 332.030518,152.141342 328.842834,150.954697 
	C331.589783,151.624069 334.542236,152.559830 337.744751,153.738724 
z"/>
<path fill="#C9C813" opacity="1.000000" stroke="none" 
	d="
M271.868347,131.362152 
	C270.838470,131.565079 269.642212,131.516998 268.238403,131.173553 
	C269.254547,130.955841 270.478271,131.033493 271.868347,131.362152 
z"/>
<path fill="#C7C308" opacity="1.000000" stroke="none" 
	d="
M339.041779,211.277023 
	C339.224945,212.163422 339.316162,213.351608 339.180786,214.771606 
	C338.952698,213.861893 338.951263,212.720352 339.041779,211.277023 
z"/>
<path fill="#C7C308" opacity="1.000000" stroke="none" 
	d="
M338.412231,218.937256 
	C338.484222,219.780182 338.274445,220.799133 337.809753,221.997803 
	C337.746704,221.156113 337.938568,220.134705 338.412231,218.937256 
z"/>
<path fill="#A6A305" opacity="1.000000" stroke="none" 
	d="
M340.979370,189.232941 
	C340.911896,188.260132 341.010620,187.365128 341.170929,186.024216 
	C341.421509,186.543701 341.610535,187.509079 341.643372,188.825256 
	C341.487122,189.176071 341.145630,189.310760 340.979370,189.232941 
z"/>
<path fill="#AEAC06" opacity="1.000000" stroke="none" 
	d="
M242.903900,367.718933 
	C244.463196,368.064728 246.048645,368.768616 247.760559,369.778320 
	C246.234711,369.415070 244.582397,368.746002 242.903900,367.718933 
z"/>
<path fill="#C4C109" opacity="1.000000" stroke="none" 
	d="
M281.159851,356.643799 
	C281.114990,356.494049 281.287567,356.313660 281.649048,356.063324 
	C281.736084,356.232117 281.582520,356.438690 281.159851,356.643799 
z"/>
<path fill="#C4C109" opacity="1.000000" stroke="none" 
	d="
M214.630096,359.681213 
	C214.486832,359.695068 214.369492,359.567261 214.142044,359.203552 
	C214.342133,359.052399 214.550171,359.243042 214.630096,359.681213 
z"/>
<path fill="#C4C109" opacity="1.000000" stroke="none" 
	d="
M272.233582,361.927673 
	C272.241699,361.796600 272.470367,361.555847 272.939514,361.234741 
	C272.972107,361.412933 272.730164,361.634094 272.233582,361.927673 
z"/>
<path fill="#AEAC06" opacity="1.000000" stroke="none" 
	d="
M239.035950,365.500946 
	C239.234711,365.366974 239.535919,365.441833 239.911667,365.762329 
	C239.650467,366.059692 239.367859,365.960266 239.035950,365.500946 
z"/>
<path fill="#AEAC06" opacity="1.000000" stroke="none" 
	d="
M241.020355,366.553497 
	C241.283478,366.153687 241.573792,366.224426 241.869629,366.795593 
	C241.613846,367.092865 241.337982,367.002197 241.020355,366.553497 
z"/>
<path fill="#FCF904" opacity="1.000000" stroke="none" 
	d="
M275.085754,274.123260 
	C264.887390,281.249084 254.144424,283.485199 242.242233,280.850555 
	C236.300430,279.535248 230.602798,278.011353 226.142136,273.650482 
	C216.383270,264.109955 210.848312,251.123108 216.328049,235.862717 
	C220.238708,224.972046 226.205582,216.464722 236.685654,211.330719 
	C251.617615,204.015762 272.800690,210.870987 280.873505,224.239975 
	C285.222412,231.442032 288.232422,238.847351 287.743378,246.604233 
	C287.097992,256.840271 283.678253,266.712158 275.085754,274.123260 
M257.797729,214.467209 
	C255.098312,213.525970 252.205917,212.932693 249.742157,211.566483 
	C245.441208,209.181488 244.161057,211.774567 242.554764,215.059265 
	C242.554764,215.059265 242.105377,215.037918 241.676758,215.224091 
	C241.407211,215.388306 241.187302,215.603256 240.264923,216.000946 
	C229.119171,219.000320 221.264862,226.360733 219.581619,237.325378 
	C216.903671,254.769302 220.709656,268.873291 241.100754,277.001251 
	C257.810150,283.661652 280.287994,271.037628 282.567810,253.264847 
	C283.080322,249.269470 281.769897,245.040268 281.134888,240.289307 
	C281.100433,239.857101 281.065979,239.424896 281.466431,238.412598 
	C280.705780,236.347900 279.945099,234.283203 279.184448,232.218506 
	C277.666016,233.395432 276.224670,234.692841 274.612976,235.723953 
	C271.349854,237.811554 267.874878,241.584000 264.701996,241.376617 
	C258.108490,240.945648 254.566498,236.702499 255.015747,231.025345 
	C255.347122,226.837769 257.378967,222.784760 258.831390,218.902771 
	C258.831390,218.902771 258.686157,218.649765 259.331207,218.865189 
	C259.995758,218.573914 260.660309,218.282654 261.324860,217.991394 
	C260.198059,217.059006 259.071259,216.126617 257.797729,214.467209 
z"/>
<path fill="#AEAC06" opacity="1.000000" stroke="none" 
	d="
M325.234375,150.141281 
	C325.334991,149.999054 325.520599,150.003784 325.973541,150.086136 
	C325.933685,150.205261 325.626526,150.246750 325.234375,150.141281 
z"/>
<path fill="#010100" opacity="1.000000" stroke="none" 
	d="
M281.031494,238.992691 
	C281.065979,239.424896 281.100433,239.857101 281.138611,241.058441 
	C281.687012,252.087997 278.722809,260.659698 271.063873,268.120880 
	C256.838135,281.979309 231.716049,278.305603 223.001297,257.485565 
	C215.359558,239.228973 226.856827,217.993286 249.456467,215.797272 
	C251.923874,215.898331 253.957016,215.956848 256.170532,216.290985 
	C257.129364,217.261017 257.907745,217.955383 258.686157,218.649765 
	C258.686157,218.649765 258.831390,218.902771 258.401123,218.863770 
	C252.669022,221.478592 251.554611,226.254044 252.240280,231.427155 
	C252.995041,237.121643 256.548828,241.223526 261.910919,242.992538 
	C266.638275,244.552170 271.349152,244.164291 274.823853,239.608978 
	C275.968353,238.108536 277.631622,237.003769 279.140167,235.643707 
	C279.944580,237.068100 280.488037,238.030396 281.031494,238.992691 
z"/>
<path fill="#BFBC0A" opacity="1.000000" stroke="none" 
	d="
M249.022186,215.754715 
	C226.856827,217.993286 215.359558,239.228973 223.001297,257.485565 
	C231.716049,278.305603 256.838135,281.979309 271.063873,268.120880 
	C278.722809,260.659698 281.687012,252.087997 281.220490,241.373138 
	C281.769897,245.040268 283.080322,249.269470 282.567810,253.264847 
	C280.287994,271.037628 257.810150,283.661652 241.100754,277.001251 
	C220.709656,268.873291 216.903671,254.769302 219.581619,237.325378 
	C221.264862,226.360733 229.119171,219.000320 240.862762,215.857925 
	C241.746124,215.556519 241.961044,215.330856 242.105377,215.037918 
	C242.105377,215.037918 242.554764,215.059265 243.172058,215.066101 
	C245.533615,215.300201 247.277908,215.527451 249.022186,215.754715 
z"/>
<path fill="#BFBC0A" opacity="1.000000" stroke="none" 
	d="
M281.248962,238.702637 
	C280.488037,238.030396 279.944580,237.068100 279.140167,235.643707 
	C277.631622,237.003769 275.968353,238.108536 274.823853,239.608978 
	C271.349152,244.164291 266.638275,244.552170 261.910919,242.992538 
	C256.548828,241.223526 252.995041,237.121643 252.240280,231.427155 
	C251.554611,226.254044 252.669022,221.478592 258.312012,218.748291 
	C257.378967,222.784760 255.347122,226.837769 255.015747,231.025345 
	C254.566498,236.702499 258.108490,240.945648 264.701996,241.376617 
	C267.874878,241.584000 271.349854,237.811554 274.612976,235.723953 
	C276.224670,234.692841 277.666016,233.395432 279.184448,232.218506 
	C279.945099,234.283203 280.705780,236.347900 281.248962,238.702637 
z"/>
<path fill="#F2EF08" opacity="1.000000" stroke="none" 
	d="
M249.456467,215.797272 
	C247.277908,215.527451 245.533615,215.300201 243.396469,215.050659 
	C244.161057,211.774567 245.441208,209.181488 249.742157,211.566483 
	C252.205917,212.932693 255.098312,213.525970 257.600250,214.857361 
	C256.931885,215.503464 256.461029,215.759399 255.990143,216.015350 
	C253.957016,215.956848 251.923874,215.898331 249.456467,215.797272 
z"/>
<path fill="#BFBC0A" opacity="1.000000" stroke="none" 
	d="
M256.170532,216.290985 
	C256.461029,215.759399 256.931885,215.503464 257.673615,215.220871 
	C259.071259,216.126617 260.198059,217.059006 261.324860,217.991394 
	C260.660309,218.282654 259.995758,218.573914 259.008667,218.757477 
	C257.907745,217.955383 257.129364,217.261017 256.170532,216.290985 
z"/>
<path fill="#F2EF08" opacity="1.000000" stroke="none" 
	d="
M241.891068,215.131012 
	C241.961044,215.330856 241.746124,215.556519 241.238800,215.791931 
	C241.187302,215.603256 241.407211,215.388306 241.891068,215.131012 
z"/>
</svg>